<?xml version="1.0" encoding="UTF-8" standalone="no"?>
<!-- Created with Inkscape (http://www.inkscape.org/) -->

<svg
   xmlns:dc="http://purl.org/dc/elements/1.1/"
   xmlns:cc="http://creativecommons.org/ns#"
   xmlns:rdf="http://www.w3.org/1999/02/22-rdf-syntax-ns#"
   xmlns:svg="http://www.w3.org/2000/svg"
   xmlns="http://www.w3.org/2000/svg"
   xmlns:sodipodi="http://sodipodi.sourceforge.net/DTD/sodipodi-0.dtd"
   xmlns:inkscape="http://www.inkscape.org/namespaces/inkscape"
   width="120"
   height="120"
   id="svg2"
   version="1.1"
   inkscape:version="0.48.4 r9939"
   sodipodi:docname="sprite.svg"
   inkscape:export-filename="D:\dev\portfolio-prototype\src\app\assets\images\sprite.png"
   inkscape:export-xdpi="90"
   inkscape:export-ydpi="90">
  <defs
     id="defs4">
    <clipPath
       clipPathUnits="userSpaceOnUse"
       id="clipPath3988">
      <rect
         style="fill:#212121;fill-opacity:0.47368421;stroke:none"
         id="rect3990"
         width="95"
         height="90"
         x="3.9285731"
         y="2.8571603" />
    </clipPath>
  </defs>
  <sodipodi:namedview
     id="base"
     pagecolor="#ffffff"
     bordercolor="#666666"
     borderopacity="1.0"
     inkscape:pageopacity="0.0"
     inkscape:pageshadow="2"
     inkscape:zoom="7.9195959"
     inkscape:cx="69.439541"
     inkscape:cy="78.331779"
     inkscape:document-units="px"
     inkscape:current-layer="layer1"
     showgrid="true"
     inkscape:window-width="1113"
     inkscape:window-height="906"
     inkscape:window-x="639"
     inkscape:window-y="78"
     inkscape:window-maximized="0"
     guidetolerance="20"
     objecttolerance="20"
     gridtolerance="10">
    <inkscape:grid
       type="xygrid"
       id="grid2985"
       empspacing="5"
       visible="true"
       enabled="true"
       snapvisiblegridlinesonly="true" />
  </sodipodi:namedview>
  <metadata
     id="metadata7">
    <rdf:RDF>
      <cc:Work
         rdf:about="">
        <dc:format>image/svg+xml</dc:format>
        <dc:type
           rdf:resource="http://purl.org/dc/dcmitype/StillImage" />
        <dc:title></dc:title>
      </cc:Work>
    </rdf:RDF>
  </metadata>
  <g
     inkscape:label="Layer 1"
     inkscape:groupmode="layer"
     id="layer1"
     transform="translate(0,-932.36217)">
    <rect
       style="fill:#ff8080;fill-opacity:1;stroke:none"
       id="rect2987-1"
       width="40"
       height="40"
       x="80.314346"
       y="932.25629" />
    <rect
       style="fill:#ff8080;fill-opacity:1;stroke:none"
       id="rect2987-4"
       width="40"
       height="40"
       x="-0.10917997"
       y="972.43616" />
    <rect
       style="fill:#ff8080;fill-opacity:1;stroke:none"
       id="rect2987-1-0"
       width="40"
       height="40"
       x="80.009766"
       y="972.25757" />
    <rect
       style="fill:#ff8080;fill-opacity:1;stroke:none"
       id="rect2987-7-9"
       width="40"
       height="40"
       x="39.950298"
       y="972.25757" />
    <rect
       style="fill:#ff8080;fill-opacity:1;stroke:none"
       id="rect2987-48"
       width="40"
       height="40"
       x="0.2436081"
       y="1012.3591" />
    <rect
       style="fill:#ff8080;fill-opacity:1;stroke:none"
       id="rect2987-1-8"
       width="40"
       height="40"
       x="80.362556"
       y="1012.3591" />
    <rect
       style="fill:#ff8080;fill-opacity:1;stroke:none"
       id="rect2987-7-2"
       width="40"
       height="40"
       x="40.303085"
       y="1012.3591" />
    <rect
       style="fill:#ffffff;fill-opacity:1;stroke:none"
       id="rect3838-1"
       width="30"
       height="4.3750062"
       x="5.0892868"
       y="959.45135"
       ry="2.1875031" />
    <rect
       style="fill:#ffffff;fill-opacity:1;stroke:none"
       id="rect3838-1-5"
       width="30"
       height="4.3750062"
       x="5.0892868"
       y="950.21802"
       ry="2.1875031" />
    <rect
       style="fill:#ffffff;fill-opacity:1;stroke:none"
       id="rect3838-1-2"
       width="30"
       height="4.3750062"
       x="5.0892868"
       y="940.98468"
       ry="2.1875031" />
    <g
       id="g3979"
       transform="matrix(0.35818693,0,0,0.35818693,42.34835,934.37974)"
       clip-path="url(#clipPath3988)"
       style="fill:#ffffff">
      <path
         id="path3967"
         d="M 89.613,48.892 52.229,7.617 C 51.566,6.904 50.638,6.5 49.666,6.5 48.694,6.5 47.765,6.904 47.103,7.617 L 8.511,49.117 C 7.563,50.137 7.309,51.621 7.865,52.899 8.422,54.174 9.682,55 11.074,55 H 21 v 30 c 0,3.313 2.592,6 5.906,6 H 30 32 32.667 34 c 2.209,0 4,-1.791 4,-4 V 72 c 0,-2.209 1.791,-4 4,-4 h 14 c 2.209,0 4,1.791 4,4 v 15 c 0,2.209 1.791,4 4,4 h 6.905 C 74.219,91 77,88.313 77,85 V 55 h 10.259 c 0.008,10e-4 0.015,0 0.02,0 1.934,0 3.5,-1.566 3.5,-3.5 -10e-4,-1.036 -0.451,-1.967 -1.166,-2.608 z"
         inkscape:connector-curvature="0"
         style="fill:#ffffff" />
      <text
         id="text3969"
         font-weight="bold"
         font-size="5px"
         y="115"
         x="0"
         style="font-size:5px;font-weight:bold;fill:#ffffff;font-family:'\'Helvetica Neue\', Helvetica, Arial-Unicode, Arial, Sans-serif'">Created by Melvin Poppelaars</text>
      <text
         id="text3971"
         font-weight="bold"
         font-size="5px"
         y="120"
         x="0"
         style="font-size:5px;font-weight:bold;fill:#ffffff;font-family:'\'Helvetica Neue\', Helvetica, Arial-Unicode, Arial, Sans-serif'">from the Noun Project</text>
    </g>
  </g>
</svg>
